<svg xmlns="http://www.w3.org/2000/svg" width="138.624" height="34.032" viewBox="0 0 138.624 34.032">
  <g id="Group_139" data-name="Group 139" transform="translate(-139 -2765)">
    <path id="Path_3" data-name="Path 3" d="M178.123,300.7h14.024v2.611h-5.522v14.717H183.6V303.311h-5.5Zm13.423,4.783h2.588v2.426h.046a3.05,3.05,0,0,1,.485-.993,3.843,3.843,0,0,1,.855-.878,3.782,3.782,0,0,1,1.109-.647,3.228,3.228,0,0,1,1.225-.254c.323,0,.554.023.67.023a2.02,2.02,0,0,0,.37.046v2.657a4.691,4.691,0,0,0-.6-.092,5.264,5.264,0,0,0-.6-.046,3.208,3.208,0,0,0-1.317.277,3.34,3.34,0,0,0-1.086.809,4.38,4.38,0,0,0-.739,1.34,5.654,5.654,0,0,0-.277,1.848v5.961H191.5ZM211.6,318.028h-2.726v-1.756h-.046A3.871,3.871,0,0,1,207.3,317.8a4.025,4.025,0,0,1-2.056.578,4.575,4.575,0,0,1-3.581-1.224,5.357,5.357,0,0,1-1.109-3.7v-7.971h2.772v7.694a3.278,3.278,0,0,0,.647,2.333,2.281,2.281,0,0,0,1.779.693,3.41,3.41,0,0,0,1.456-.277,2.512,2.512,0,0,0,.947-.716,2.811,2.811,0,0,0,.531-1.086,5.132,5.132,0,0,0,.162-1.363v-7.278h2.773v12.545Zm4.713-4.02a2.181,2.181,0,0,0,.924,1.71,3.638,3.638,0,0,0,1.918.485,6.342,6.342,0,0,0,.878-.069,3.87,3.87,0,0,0,.924-.231,1.626,1.626,0,0,0,.716-.508,1.183,1.183,0,0,0,.254-.855,1.243,1.243,0,0,0-.393-.878,3.274,3.274,0,0,0-.924-.555,8.019,8.019,0,0,0-1.294-.347c-.485-.092-.97-.208-1.479-.323s-1.017-.254-1.5-.416a4.307,4.307,0,0,1-1.294-.67,2.88,2.88,0,0,1-.9-1.063,3.321,3.321,0,0,1-.347-1.594,2.732,2.732,0,0,1,.508-1.71,3.685,3.685,0,0,1,1.271-1.109,5.77,5.77,0,0,1,1.71-.6,9.787,9.787,0,0,1,1.779-.162,7.947,7.947,0,0,1,1.848.208,4.673,4.673,0,0,1,1.594.67,3.66,3.66,0,0,1,1.178,1.2,4.162,4.162,0,0,1,.6,1.779H221.4a1.778,1.778,0,0,0-.9-1.34,3.721,3.721,0,0,0-1.64-.346c-.185,0-.439.023-.693.046a4.087,4.087,0,0,0-.762.185,1.809,1.809,0,0,0-.6.393.924.924,0,0,0-.254.67,1.016,1.016,0,0,0,.346.809,3.141,3.141,0,0,0,.924.531,8.009,8.009,0,0,0,1.294.347c.485.092.993.208,1.5.323s.993.254,1.479.416a4.047,4.047,0,0,1,1.294.67,3.332,3.332,0,0,1,.924,1.04,3.194,3.194,0,0,1,.347,1.548,3.368,3.368,0,0,1-.508,1.895,4.32,4.32,0,0,1-1.317,1.271,6.533,6.533,0,0,1-1.8.716,9.683,9.683,0,0,1-1.964.231,8.272,8.272,0,0,1-2.195-.277,5.589,5.589,0,0,1-1.756-.809,3.879,3.879,0,0,1-1.155-1.363,4.451,4.451,0,0,1-.462-1.941h2.8v.023Zm9.126-8.525h2.1v-3.789h2.772v3.766h2.5v2.056h-2.5v6.7a7.105,7.105,0,0,0,.046.762,1.6,1.6,0,0,0,.162.531.9.9,0,0,0,.393.323,2.059,2.059,0,0,0,.739.116,4.829,4.829,0,0,0,.578-.023,5,5,0,0,0,.578-.092v2.149c-.3.046-.6.069-.9.092a5.749,5.749,0,0,1-.9.046,5.972,5.972,0,0,1-1.756-.208,2.524,2.524,0,0,1-1.04-.6,2.148,2.148,0,0,1-.508-.993,7.878,7.878,0,0,1-.162-1.386v-7.393h-2.1v-2.056Zm9.311,0h2.611v1.71h.046a3.432,3.432,0,0,1,1.617-1.571,5.238,5.238,0,0,1,2.264-.485,5.693,5.693,0,0,1,2.588.531A4.856,4.856,0,0,1,245.7,307.1a5.975,5.975,0,0,1,1.086,2.126,9.334,9.334,0,0,1,.046,5.037,6.8,6.8,0,0,1-.993,2.1,4.914,4.914,0,0,1-1.687,1.456,4.986,4.986,0,0,1-2.4.554,7.045,7.045,0,0,1-1.2-.115,5.112,5.112,0,0,1-1.155-.347,4.143,4.143,0,0,1-1.017-.624,3.52,3.52,0,0,1-.786-.878h-.046v6.261h-2.772V305.483Zm9.681,6.284a5.63,5.63,0,0,0-.231-1.64,4.184,4.184,0,0,0-.67-1.409,3.7,3.7,0,0,0-1.086-.993,2.955,2.955,0,0,0-1.5-.37,3.069,3.069,0,0,0-2.634,1.2,5.472,5.472,0,0,0-.878,3.235,5.982,5.982,0,0,0,.231,1.756,3.912,3.912,0,0,0,.693,1.386,3.3,3.3,0,0,0,1.109.924,3.133,3.133,0,0,0,1.5.347,3.074,3.074,0,0,0,1.594-.393,3.723,3.723,0,0,0,1.086-.993,4.065,4.065,0,0,0,.6-1.409A7.933,7.933,0,0,0,244.432,311.767Zm4.875-11.067h2.773v2.611h-2.773Zm0,4.783h2.773v12.545h-2.773Zm5.245-4.783h2.773v17.328h-2.773Zm11.229,17.675a6.6,6.6,0,0,1-2.68-.508,6.083,6.083,0,0,1-1.987-1.363,5.935,5.935,0,0,1-1.224-2.1,8.211,8.211,0,0,1-.439-2.657,7.5,7.5,0,0,1,.439-2.634,6.146,6.146,0,0,1,1.224-2.1,5.542,5.542,0,0,1,1.987-1.363,7.013,7.013,0,0,1,2.68-.508,6.6,6.6,0,0,1,2.68.508,5.75,5.75,0,0,1,1.987,1.363,5.936,5.936,0,0,1,1.225,2.1,8.072,8.072,0,0,1,.439,2.634,7.545,7.545,0,0,1-.439,2.657,6.539,6.539,0,0,1-1.225,2.1,5.541,5.541,0,0,1-1.987,1.363A6.927,6.927,0,0,1,265.78,318.375Zm0-2.195a3.2,3.2,0,0,0,1.594-.393,3.345,3.345,0,0,0,1.109-1.017,4.353,4.353,0,0,0,.647-1.409,6.3,6.3,0,0,0,0-3.212,4.143,4.143,0,0,0-.647-1.409,3.509,3.509,0,0,0-1.109-.993,3.259,3.259,0,0,0-1.594-.393,3.2,3.2,0,0,0-1.594.393,3.536,3.536,0,0,0-1.109.993,4.142,4.142,0,0,0-.647,1.409,6.3,6.3,0,0,0,0,3.212,4.142,4.142,0,0,0,.647,1.409,3.582,3.582,0,0,0,1.109,1.017A3.026,3.026,0,0,0,265.78,316.18Zm7.162-10.7h2.1v-3.789h2.772v3.766h2.5v2.056h-2.5v6.7a7.093,7.093,0,0,0,.046.762,1.6,1.6,0,0,0,.162.531.9.9,0,0,0,.393.323,2.059,2.059,0,0,0,.739.116,4.829,4.829,0,0,0,.578-.023,5,5,0,0,0,.578-.092v2.149c-.3.046-.6.069-.9.092a5.748,5.748,0,0,1-.9.046,5.973,5.973,0,0,1-1.756-.208,2.524,2.524,0,0,1-1.04-.6,2.149,2.149,0,0,1-.508-.993,7.883,7.883,0,0,1-.162-1.386v-7.393h-2.1v-2.056Z" transform="translate(-2.688 2476.36)" fill="#fff"/>
    <path id="Path_4" data-name="Path 4" d="M53.7,260.56H41.016l-3.9-12.06-3.928,12.06L20.5,260.537,30.758,268,26.83,280.06,37.089,272.6l10.258,7.463L43.442,268Z" transform="translate(118.5 2516.5)" fill="#fff"/>
  </g>
</svg>
