<svg width="18" height="19" viewBox="0 0 18 19" fill="none" xmlns="http://www.w3.org/2000/svg">
<path d="M17.487 14.6384L13.422 10.9424C13.023 10.5794 12.407 10.5984 12.031 10.9854L9.63804 13.4464C9.06204 13.3364 7.90404 12.9754 6.71204 11.7864C5.52004 10.5934 5.15904 9.43241 5.05204 8.86041L7.51104 6.46641C7.89904 6.09041 7.91704 5.47541 7.55404 5.07541L3.85904 1.01141C3.49604 0.610412 2.87904 0.572412 2.46804 0.924412L0.298038 2.78541C0.125038 2.95941 0.0220378 3.18941 0.00803782 3.43441C-0.00696218 3.68441 -0.292962 9.60641 4.29904 14.2004C8.30504 18.2054 13.323 18.4984 14.705 18.4984C14.907 18.4984 15.031 18.4924 15.064 18.4904C15.309 18.4764 15.539 18.3734 15.712 18.1994L17.572 16.0284C17.926 15.6174 17.887 15.0014 17.487 14.6384Z" fill="#52D9F2"/>
</svg>
