<svg id="Component_4_1" data-name="Component 4 – 1" xmlns="http://www.w3.org/2000/svg" width="109.378" height="20.508" viewBox="0 0 109.378 20.508">
  <g id="Component_2_1" data-name="Component 2 – 1">
    <g id="Component_3_1" data-name="Component 3 – 1">
      <path id="Path_6" data-name="Path 6" d="M0,0H20.508V20.508H0ZM22.217,0H42.726V20.508H22.217ZM44.435,0H64.943V20.508H44.435ZM66.652,0H87.16V20.508H66.652ZM88.87,0h20.508V20.508H88.87Z" fill="#00b67a"/>
    </g>
  </g>
  <path id="Path_7" data-name="Path 7" d="M21.578,26.561l3.119-.79L26,29.787Zm7.178-5.191h-5.49L21.578,16.2,19.89,21.37H14.4l4.443,3.2-1.688,5.17,4.443-3.2,2.734-1.965ZM43.8,26.561l3.119-.79,1.3,4.016Zm7.178-5.191h-5.49L43.8,16.2l-1.688,5.17h-5.49l4.443,3.2-1.688,5.17,4.443-3.2,2.734-1.965Zm15.039,5.191,3.119-.79,1.3,4.016Zm7.178-5.191H67.7L66.013,16.2l-1.688,5.17h-5.49l4.443,3.2-1.688,5.17,4.443-3.2,2.734-1.965ZM88.23,26.561l3.119-.79,1.3,4.016Zm7.178-5.191h-5.49L88.23,16.2l-1.688,5.17h-5.49l4.443,3.2-1.688,5.17,4.443-3.2,2.734-1.965Zm15.039,5.191,3.119-.79,1.3,4.016Zm7.178-5.191h-5.49l-1.688-5.17-1.688,5.17h-5.49l4.443,3.2-1.688,5.17,4.443-3.2,2.734-1.965Z" transform="translate(-11.323 -12.739)" fill="#fff"/>
</svg>
