<svg xmlns="http://www.w3.org/2000/svg" xmlns:xlink="http://www.w3.org/1999/xlink" width="184.49" height="20.85" viewBox="0 0 184.49 20.85"><defs><clipPath id="a"><path d="M0,0H84.91V20.85H0Z" fill="#fff"/></clipPath></defs><g transform="translate(96.488 4.35)"><path d="M16.5,0H0V16.5H16.5ZM34.376,0h-16.5V16.5h16.5ZM52.251,0h-16.5V16.5h16.5ZM70.127,0h-16.5V16.5h16.5Z" fill="#00b67a"/><path d="M124.25,0H116V16.5h8.25Z" transform="translate(-36.248)" fill="#dcdce6"/><path d="M112.25,0H104V16.5h8.25Z" transform="translate(-32.498)" fill="#00b67a"/><path d="M9.375,12.39l2.509-.639,1.052,3.231Zm5.775-4.18H10.736L9.375,4.05,8.021,8.209H3.6l3.575,2.578L5.821,14.947,9.4,12.369l2.2-1.581L15.15,8.209Zm12.1,4.18,2.509-.639,1.052,3.231Zm5.775-4.18H28.612L27.251,4.05,25.9,8.209H21.475l3.575,2.578L23.7,14.947l3.575-2.578,2.2-1.581,3.554-2.578Zm12.1,4.18,2.509-.639,1.052,3.231ZM50.9,8.209H46.487L45.126,4.05,43.772,8.209H39.351l3.575,2.578-1.354,4.159,3.575-2.578,2.2-1.581L50.9,8.209ZM63,12.39l2.509-.639,1.052,3.231Zm5.775-4.18H64.363L63,4.05,61.647,8.209H57.226L60.8,10.788l-1.354,4.159,3.575-2.578,2.2-1.581,3.554-2.578Zm12.1,4.18,2.509-.639,1.045,3.231Zm5.775-4.18H82.232L80.877,4.05,79.523,8.209H75.1l3.575,2.578-1.354,4.159L80.9,12.369l2.2-1.581,3.554-2.578Z" transform="translate(-1.125 -1.266)" fill="#fff"/></g><g clip-path="url(#a)"><path d="M34.737,11.34h8.6v1.6H39.949V21.96H38.1V12.943H34.73v-1.6Zm8.229,2.932h1.59v1.486h.033a1.665,1.665,0,0,1,.293-.612,2.7,2.7,0,0,1,1.186-.932,2.037,2.037,0,0,1,.762-.15q.205,0,.41.013l.235.033v1.629a5.414,5.414,0,0,0-.736-.072,1.863,1.863,0,0,0-1.466.678,2.481,2.481,0,0,0-.456.821,3.492,3.492,0,0,0-.163,1.134v3.649H42.959V14.278h.007ZM55.26,21.96H53.592V20.892h-.026a2.315,2.315,0,0,1-.932.925,2.541,2.541,0,0,1-1.257.352,2.824,2.824,0,0,1-2.2-.749,3.276,3.276,0,0,1-.678-2.267V14.265H50.2v4.717a2.073,2.073,0,0,0,.391,1.433,1.418,1.418,0,0,0,1.088.424,2.1,2.1,0,0,0,.893-.169,1.467,1.467,0,0,0,.573-.443,1.8,1.8,0,0,0,.326-.652,3.7,3.7,0,0,0,.1-.84V14.278H55.26V21.96ZM58.147,19.5a1.3,1.3,0,0,0,.56,1.042,2.313,2.313,0,0,0,1.173.3,4.912,4.912,0,0,0,.541-.039,2.465,2.465,0,0,0,.573-.143,1.044,1.044,0,0,0,.437-.306.766.766,0,0,0,.163-.521.723.723,0,0,0-.241-.534,1.694,1.694,0,0,0-.573-.339,6.754,6.754,0,0,0-.788-.222c-.306-.059-.606-.13-.912-.2a7.592,7.592,0,0,1-.912-.254,2.789,2.789,0,0,1-.782-.4,1.723,1.723,0,0,1-.56-.645,2.02,2.02,0,0,1-.208-.977,1.759,1.759,0,0,1,.306-1.042,2.3,2.3,0,0,1,.775-.684,3.583,3.583,0,0,1,1.042-.365,5.1,5.1,0,0,1,2.235.02,2.932,2.932,0,0,1,.977.41,2.424,2.424,0,0,1,1.095,1.831H61.274a1.032,1.032,0,0,0-.554-.814,2.274,2.274,0,0,0-1-.208,3.153,3.153,0,0,0-.893.137,1.049,1.049,0,0,0-.365.241.58.58,0,0,0-.15.417.639.639,0,0,0,.215.5,1.92,1.92,0,0,0,.56.319,5.738,5.738,0,0,0,.795.215l.925.2a7.626,7.626,0,0,1,.912.261,2.515,2.515,0,0,1,.788.4,2,2,0,0,1,.56.632,1.946,1.946,0,0,1,.222.951,2.062,2.062,0,0,1-.319,1.166,2.463,2.463,0,0,1-.808.769,3.778,3.778,0,0,1-1.108.437,5.564,5.564,0,0,1-2.554-.033,3.284,3.284,0,0,1-1.075-.5,2.45,2.45,0,0,1-.99-2.02h1.714V19.5Zm5.59-5.225h1.277V11.965h1.694v2.306h1.531v1.264H66.7v4.1a3.775,3.775,0,0,0,.026.469.8.8,0,0,0,.1.326.484.484,0,0,0,.248.208,1.472,1.472,0,0,0,.45.065l.358-.007a2.159,2.159,0,0,0,.358-.052v1.31l-.547.065a4.372,4.372,0,0,1-1.629-.1,1.418,1.418,0,0,1-.632-.371,1.3,1.3,0,0,1-.313-.619,4.626,4.626,0,0,1-.1-.847V15.556H63.743V14.272H63.73Zm5.7,0h1.6v1.042h.033a2.063,2.063,0,0,1,1-.958,3.3,3.3,0,0,1,1.388-.293,3.514,3.514,0,0,1,1.577.326,3.015,3.015,0,0,1,1.127.873,3.92,3.92,0,0,1,.665,1.3,5.518,5.518,0,0,1,.02,3.088,3.9,3.9,0,0,1-.606,1.29,2.978,2.978,0,0,1-2.508,1.225,3.264,3.264,0,0,1-1.453-.287,2.574,2.574,0,0,1-1.114-.912h-.033V24.8H69.438V14.272Zm5.923,3.851a3.775,3.775,0,0,0-.137-1.01,2.73,2.73,0,0,0-.4-.873,2.064,2.064,0,0,0-.671-.606,2.07,2.07,0,0,0-2.528.508,3.29,3.29,0,0,0-.541,1.981,4.043,4.043,0,0,0,.143,1.082,2.409,2.409,0,0,0,.424.847,1.962,1.962,0,0,0,.678.567,2.111,2.111,0,0,0,1.889-.026,2.016,2.016,0,0,0,.665-.619,2.607,2.607,0,0,0,.378-.86A5.009,5.009,0,0,0,75.361,18.123Zm2.991-6.776h1.694v1.6H78.351v-1.6Zm0,2.925h1.694V21.96H78.351Zm3.206-2.932h1.694V21.96H81.557Zm6.887,10.829a4.189,4.189,0,0,1-1.642-.306,3.434,3.434,0,0,1-1.981-2.118,4.939,4.939,0,0,1-.261-1.635,5.065,5.065,0,0,1,.261-1.622A3.453,3.453,0,0,1,86.8,14.363a4.535,4.535,0,0,1,3.284,0,3.434,3.434,0,0,1,1.981,2.124,5.2,5.2,0,0,1,0,3.251,3.453,3.453,0,0,1-1.981,2.124,4.063,4.063,0,0,1-1.642.306Zm0-1.342a1.968,1.968,0,0,0,1.661-.86,2.685,2.685,0,0,0,.4-.867,3.9,3.9,0,0,0,0-1.974,2.567,2.567,0,0,0-.391-.867,2.072,2.072,0,0,0-.684-.619,2.131,2.131,0,0,0-1.968,0,2.2,2.2,0,0,0-.678.619,2.623,2.623,0,0,0-.4.867,3.9,3.9,0,0,0,0,1.974,2.669,2.669,0,0,0,.391.867,2.161,2.161,0,0,0,.684.625,1.911,1.911,0,0,0,.984.235Zm4.378-6.555H94.1V11.965h1.694v2.306h1.531v1.264H95.793v4.1a3.778,3.778,0,0,0,.026.469.8.8,0,0,0,.1.326.484.484,0,0,0,.248.208,1.5,1.5,0,0,0,.45.065l.358-.007a2.159,2.159,0,0,0,.358-.052v1.31l-.547.065a4.378,4.378,0,0,1-1.629-.1,1.454,1.454,0,0,1-.632-.371,1.3,1.3,0,0,1-.313-.619,4.626,4.626,0,0,1-.1-.847V15.556H92.835V14.272h-.013Z" transform="translate(-12.427 -3.951)" fill="#191919"/><path d="M20.828,7.389H13.075L10.671,0,8.26,7.389.5,7.382l6.287,4.574L4.377,19.338l6.294-4.561,6.281,4.561-2.4-7.382L20.835,7.4Z" transform="translate(-0.5)" fill="#00b67a"/><path d="M20.534,20.018l-.541-1.668L16.11,21.165l4.424-1.147Z" transform="translate(-5.939 -6.394)" fill="#005128"/></g></svg>